<?xml version="1.0" encoding="UTF-8" standalone="no"?><!DOCTYPE svg PUBLIC "-//W3C//DTD SVG 1.1//EN" "http://www.w3.org/Graphics/SVG/1.1/DTD/svg11.dtd"><svg width="100%" height="100%" viewBox="0 0 1254 1254" version="1.1" xmlns="http://www.w3.org/2000/svg" xmlns:xlink="http://www.w3.org/1999/xlink" xml:space="preserve" xmlns:serif="http://www.serif.com/" style="fill-rule:evenodd;clip-rule:evenodd;stroke-linejoin:round;stroke-miterlimit:2;"><g id="Background"><path d="M32.504,105.128c0.18,-0.673 8.226,-47.67 53.067,-72.177c26.49,-14.479 31.778,-13.644 125.497,-13.497c88.34,0.138 900.662,-0.12 910.977,0.13c33.015,0.802 72.865,22.972 91.221,61.02c11.94,24.752 11.303,26.978 11.222,140.53c-0.196,273.601 0.06,884.285 -0.11,905.523c-0.368,45.803 -35.33,107.546 -110.52,107.656c-53.866,0.078 -412.325,0.599 -673.335,0.03c-307.846,-0.67 -315.471,3.258 -340.061,-6.675c-79.061,-31.935 -70.448,-112.309 -70.452,-113.306c-0.129,-56.926 -1.062,-466.572 -0.091,-711.575c0.785,-198.216 -2.157,-271.376 2.584,-297.658l0.002,-0.001l-0.001,-0Z" style="fill:#000000;stroke:#000000;stroke-width:1.12px;"/><path d="M949.721,133.042c4.765,-46.425 54.393,-38.252 63.453,-12.237c15.922,45.716 -58.046,66.394 -63.453,12.237Z" style="fill:#fff;"/><path d="M1111.331,165.367c-57.162,-6.001 -31.476,-80.741 12.066,-63.301c25.163,10.079 32.519,57.555 -12.066,63.301Z" style="fill:#ff2042;"/><path d="M828.731,134.321c2.238,-46.102 53.7,-41.893 63.413,-12.075c10.619,32.599 -28.957,53.935 -49.591,37.638c-13.978,-11.04 -13.234,-22.451 -13.822,-25.561l0,-0.002Z" style="fill:#fff;"/><path d="M954.972,331.322c4.431,-44.761 -3.773,-59.748 24.028,-69.192c22.923,-7.786 31.006,24.645 32.1,29.033c8.023,32.188 2.494,681.151 1.99,740.377c-0.485,56.874 -34.629,64.535 -49.74,39.154c-7.088,-11.905 -9.622,-14.424 -8.378,-739.369l0,-0.003Z" style="fill:#edf1ed;stroke:#7000ff;stroke-width:2.03px;"/></g><path d="M806.307,726.594c1.822,68.877 -13.165,56.743 -15.676,-8.84c-2.359,-61.578 -40.025,92.353 -40.252,93.193c-41.087,152.586 -73.999,130.607 -69.458,-13.719c3.739,-118.818 64.303,-257.745 46.644,-252.899c-56.828,15.598 -169.863,421.408 -204.944,306.025c-20.396,-67.082 0.978,-200.495 -8.4,-187.456c-47.271,65.709 -105.414,305.06 -119.055,101.898c-5.183,-77.186 -101.775,209.892 -113.552,73.292c-11.054,-128.214 48.892,-387.006 7.068,-301.096c-42.005,86.282 -72.786,273.845 -77.98,305.496c-6.347,38.679 -13.428,11.805 -13.567,-20.963c-0.338,-80.033 82.442,-433.616 111.925,-387.847c27.059,42.005 -8.355,288.294 -12.599,339.693c-5.649,68.413 76.391,-119.426 96.837,-110.65c15.648,6.717 15.771,64.794 16.717,78.633c6.19,90.71 100.056,-226.287 117.651,-163.416c16.374,58.507 -5.05,175.02 2.904,195.622c31.76,82.262 180.898,-423.738 211.781,-298.69c24.078,97.488 -33.059,265.649 -36.144,278.497c-0.791,3.297 -22.692,94.52 2.378,69.449c34.548,-34.547 89.979,-389.005 97.722,-96.22l-0,-0.002Z" style="fill:#f9f9fa;stroke:#7000ff;stroke-width:1.2px;"/></svg>